<?xml version="1.0" encoding="UTF-8"?>
<svg version="1.1" xmlns="http://www.w3.org/2000/svg" width="100" height="100">
<path d="M0 0 C6.2018323 3.68514673 10.19973086 8.53078027 12.5625 15.3125 C13.12186323 19.30663669 13.12257278 23.22262092 13.0625 27.25 C13.07796875 28.28318359 13.0934375 29.31636719 13.109375 30.38085938 C13.0745975 37.24506779 11.86238794 42.30066427 8.5625 48.3125 C8.0675 49.3025 8.0675 49.3025 7.5625 50.3125 C8.43261719 50.78816406 8.43261719 50.78816406 9.3203125 51.2734375 C15.76988967 55.12615522 19.50806037 59.42910211 22.5625 66.3125 C23.5625 71.3125 23.5625 71.3125 23.5625 82.3125 C1.1225 82.3125 -21.3175 82.3125 -44.4375 82.3125 C-44.4375 70.6557008 -43.61392334 62.65848051 -35.4375 54.3125 C-33.15501624 52.68542825 -30.97864096 51.53224766 -28.4375 50.3125 C-28.71464844 49.78140625 -28.99179687 49.2503125 -29.27734375 48.703125 C-29.82068359 47.64351562 -29.82068359 47.64351562 -30.375 46.5625 C-30.73464844 45.86640625 -31.09429687 45.1703125 -31.46484375 44.453125 C-34.04976329 38.76422576 -33.7672871 32.83084966 -33.875 26.6875 C-33.92076172 25.64464844 -33.96652344 24.60179687 -34.01367188 23.52734375 C-34.12514295 15.76314105 -32.44756714 10.33705555 -27.4375 4.3125 C-19.67473218 -1.90155332 -9.36541689 -4.43248739 0 0 Z " fill="#FD3F80" transform="translate(60.4375,9.6875)"/>
<path d="M0 0 C4.94754234 2.84458286 7.84443678 7.09581034 9.625 12.4375 C10.51040226 21.93660138 9.80150434 30.24532569 4.625 38.4375 C2.41010888 40.76695445 0.16289266 42.7647621 -2.38671875 44.71875 C-5.38583076 47.31130262 -6.26455765 49.42170103 -6.69384766 53.37011719 C-6.72526855 54.48032227 -6.75668945 55.59052734 -6.7890625 56.734375 C-6.82773437 57.93964844 -6.86640625 59.14492187 -6.90625 60.38671875 C-6.9371875 61.64097656 -6.968125 62.89523438 -7 64.1875 C-7.03867187 65.45722656 -7.07734375 66.72695312 -7.1171875 68.03515625 C-7.21144222 71.1691257 -7.29705166 74.30308949 -7.375 77.4375 C-8.695 77.4375 -10.015 77.4375 -11.375 77.4375 C-11.37387207 76.62595459 -11.37274414 75.81440918 -11.37158203 74.97827148 C-11.38373941 71.2763503 -11.44144987 67.57646625 -11.5 63.875 C-11.49742188 62.59818359 -11.49484375 61.32136719 -11.4921875 60.00585938 C-11.52952973 51.99309877 -11.52952973 51.99309877 -15.265625 45.1875 C-16.27019739 44.235997 -17.3052244 43.3150556 -18.375 42.4375 C-25.4571999 35.86117152 -28.43112217 28.90473031 -28.8125 19.3125 C-28.749655 12.3288489 -26.93070399 7.71199284 -22.375 2.4375 C-16.43446589 -3.25181749 -7.25289883 -3.16714486 0 0 Z " fill="#464344" transform="translate(59.375,14.5625)"/>
<path d="M0 0 C3.19163753 1.52328155 5.76213211 3.25782385 8 6 C8.89301622 10.74666278 8.6887291 14.81932155 6.25 19 C3.13011459 21.77323148 1.28044213 22.83298581 -2.875 23.375 C-6.84487514 22.89861498 -8.89536536 21.46959574 -12 19 C-14.48239774 15.27640338 -14.59784051 12.91161203 -14.5078125 8.51953125 C-13.75438445 4.78136902 -12.04790089 3.16686165 -9.00390625 0.99609375 C-5.80388961 -0.5945578 -3.48773085 -0.58128847 0 0 Z " fill="#D5D5D5" transform="translate(53,19)"/>
<path d="M0 0 C2.375 1.625 2.375 1.625 4 4 C4.48288863 7.31123632 4.29618989 9.296549 3 12.375 C0.29455964 14.5731703 -1.7087924 14.5712063 -5.125 14.3828125 C-7 14 -7 14 -9 12.375 C-10.29618989 9.296549 -10.48288863 7.31123632 -10 4 C-7.21921757 -0.06422047 -4.81255755 -0.80209293 0 0 Z " fill="#464646" transform="translate(53,23)"/>
</svg>
