<?xml version="1.0" encoding="UTF-8"?>
<svg version="1.1" xmlns="http://www.w3.org/2000/svg" width="1332" height="749">
<path d="M0 0 C439.56 0 879.12 0 1332 0 C1332 247.17 1332 494.34 1332 749 C892.44 749 452.88 749 0 749 C0 501.83 0 254.66 0 0 Z " fill="#353535" transform="translate(0,0)"/>
<path d="M0 0 C0 0.66 0 1.32 0 2 C1.98 2.66 3.96 3.32 6 4 C6 4.66 6 5.32 6 6 C6.804375 6.37125 6.804375 6.37125 7.625 6.75 C10.5823982 8.30652537 13.29724051 10.03435673 16 12 C16 12.66 16 13.32 16 14 C16.66 14 17.32 14 18 14 C18.103125 14.639375 18.20625 15.27875 18.3125 15.9375 C18.539375 16.618125 18.76625 17.29875 19 18 C19.99 18.33 20.98 18.66 22 19 C27.92382273 26.25101799 32.69648813 34.95048909 35 44 C35.50402344 45.11375 36.00804687 46.2275 36.52734375 47.375 C38.7459023 53.24516053 38.48824465 59.23791845 38.4375 65.4375 C38.43049072 67.29580444 38.43049072 67.29580444 38.42333984 69.19165039 C38.23746189 80.78484353 36.52488728 91.25848831 32 102 C31.34 102 30.68 102 30 102 C29.7525 102.86625 29.505 103.7325 29.25 104.625 C27.9259982 108.19980486 26.25008117 110.97286377 24 114 C23.21689453 115.11375 23.21689453 115.11375 22.41796875 116.25 C14.88099171 126.40508486 3.79960259 135.2556494 -8 140 C-10.31 140.33 -12.62 140.66 -15 141 C-15 156.84 -15 172.68 -15 189 C14.04 189 43.08 189 73 189 C73 199.89 73 210.78 73 222 C7.33 222 -58.34 222 -126 222 C-126 211.11 -126 200.22 -126 189 C-98.61 189 -71.22 189 -43 189 C-43.33 174.81 -43.66 160.62 -44 146 C-49.94 145.01 -49.94 145.01 -56 144 C-70.95081967 141.04918033 -70.95081967 141.04918033 -75 137 C-75.969375 136.649375 -76.93875 136.29875 -77.9375 135.9375 C-87.37540268 132.01321614 -96.04813615 123.1415619 -102 115 C-102 114.01 -102 113.02 -102 112 C-102.66 112 -103.32 112 -104 112 C-104 111.34 -104 110.68 -104 110 C-104.66 110 -105.32 110 -106 110 C-106 108.68 -106 107.36 -106 106 C-106.66 106 -107.32 106 -108 106 C-108.2475 105.360625 -108.495 104.72125 -108.75 104.0625 C-109.78274342 101.53227861 -110.87332243 99.05128031 -112 96.5625 C-118.24639954 82.49068541 -119.25136171 64.8926489 -115 50 C-114.73574219 49.06929688 -114.47148437 48.13859375 -114.19921875 47.1796875 C-113.49309707 44.77686585 -112.76141677 42.38577254 -112 40 C-111.34 40 -110.68 40 -110 40 C-109.855625 39.278125 -109.71125 38.55625 -109.5625 37.8125 C-109.04166667 35.20833333 -108.52083333 32.60416667 -108 30 C-107.34 30 -106.68 30 -106 30 C-105.95875 29.319375 -105.9175 28.63875 -105.875 27.9375 C-104.60963167 23.68947774 -101.95240346 21.22260109 -99 18 C-98.401875 17.27683594 -97.80375 16.55367188 -97.1875 15.80859375 C-96.589375 15.08800781 -95.99125 14.36742187 -95.375 13.625 C-94.82585937 12.95726562 -94.27671875 12.28953125 -93.7109375 11.6015625 C-92 10 -92 10 -89.9140625 9.5234375 C-89.28242188 9.35070312 -88.65078125 9.17796875 -88 9 C-87.3168569 7.67503293 -86.65181162 6.34065799 -86 5 C-82.87871659 2.65303498 -79.42245791 0.87293889 -76 -1 C-74.79923828 -1.68835938 -74.79923828 -1.68835938 -73.57421875 -2.390625 C-66.98950435 -5.96857128 -60.34153136 -7.64361888 -53 -9 C-52.29101562 -9.13277344 -51.58203125 -9.26554688 -50.8515625 -9.40234375 C-33.17613031 -12.12450947 -15.81788335 -7.90894167 0 0 Z " fill="#DD5585" transform="translate(328,242)"/>
<path d="M0 0 C38.61 0 77.22 0 117 0 C117 38.61 117 77.22 117 117 C78.39 117 39.78 117 0 117 C0 78.39 0 39.78 0 0 Z " fill="#EC6D9A" transform="translate(996,400)"/>
<path d="M0 0 C9.24 0 18.48 0 28 0 C28 43.56 28 87.12 28 132 C18.76 132 9.52 132 0 132 C0 114.51 0 97.02 0 79 C-18.48 79.33 -36.96 79.66 -56 80 C-62.72627219 99.42605111 -62.72627219 99.42605111 -69 119 C-69.86394188 121.58705248 -70.73674472 124.17119433 -71.625 126.75 C-73.21659479 131.43363049 -74.56965612 136.07158139 -75.53125 140.92578125 C-76.38616885 144.70879715 -77.70511563 148.34842608 -79 152 C-79.66 152 -80.32 152 -81 152 C-81.66 155.3 -82.32 158.6 -83 162 C-92.57 162 -102.14 162 -112 162 C-109.75026015 151.87617066 -109.75026015 151.87617066 -108.1953125 146.890625 C-107.85886719 145.80523438 -107.52242187 144.71984375 -107.17578125 143.6015625 C-106.82902344 142.49554687 -106.48226562 141.38953125 -106.125 140.25 C-105.78597656 139.15945313 -105.44695313 138.06890625 -105.09765625 136.9453125 C-104.4127438 134.74213406 -103.72556849 132.53965781 -103.03613281 130.33789062 C-102.33186873 128.06911151 -101.63890494 125.7968002 -100.95605469 123.52148438 C-98.08405755 113.97366515 -98.08405755 113.97366515 -96.4375 110.30078125 C-94.57639527 106.02732065 -93.30141004 101.65770792 -92 97.1875 C-91.5 95.49348958 -91 93.79947917 -90.5 92.10546875 C-89.75203152 89.5684798 -89.00877924 87.03086527 -88.28515625 84.48681641 C-87.08347499 80.33208466 -85.76749428 76.31641302 -84.109375 72.3203125 C-81.36941047 65.65306548 -79.34870655 58.76484296 -77.25 51.875 C-75.8475 47.29625 -74.445 42.7175 -73 38 C-89.83 38 -106.66 38 -124 38 C-124 27.44 -124 16.88 -124 6 C-93.97 6 -63.94 6 -33 6 C-33 7.65 -33 9.3 -33 11 C-33.66 11 -34.32 11 -35 11 C-35.36738281 12.79244141 -35.36738281 12.79244141 -35.7421875 14.62109375 C-37.2033772 21.19644742 -39.18536453 27.61569628 -41.125 34.0625 C-43.043125 40.4665625 -43.043125 40.4665625 -45 47 C-30.15 47 -15.3 47 0 47 C0 31.49 0 15.98 0 0 Z " fill="#D8D8D8" transform="translate(867,401)"/>
<path d="M0 0 C9.24 0 18.48 0 28 0 C28 43.89 28 87.78 28 133 C18.76 133 9.52 133 0 133 C0 115.51 0 98.02 0 80 C-17.49 80 -34.98 80 -53 80 C-53 80.99 -53 81.98 -53 83 C-53.66 83 -54.32 83 -55 83 C-55.165 83.804375 -55.33 84.60875 -55.5 85.4375 C-59.78662877 95.61824333 -68.84341603 101.49813397 -78.7109375 105.625 C-87.88733025 108.94956196 -100.03787604 108.81858303 -108.99169922 104.89672852 C-120.62764331 98.96242934 -128.70095375 89.31770209 -133 77 C-135.51511308 64.94035524 -134.73482191 53.35792275 -127.9375 42.9375 C-120.36592834 32.86319126 -111.43684071 25.83559495 -98.8671875 23.390625 C-90.80847599 22.2927079 -83.7064355 23.41538009 -76 26 C-75.34 26.66 -74.68 27.32 -74 28 C-73.01 28.33 -72.02 28.66 -71 29 C-65.25302865 31.35928298 -60.82147776 36.22839249 -57 41 C-56.01 43.97 -56.01 43.97 -55 47 C-36.85 47 -18.7 47 0 47 C0 31.49 0 15.98 0 0 Z " fill="#D8D8D8" transform="translate(773,247)"/>
<path d="M0 0 C43.56 0 87.12 0 132 0 C132 10.89 132 21.78 132 33 C113.85 33 95.7 33 77 33 C78.98 35.97 80.96 38.94 83 42 C85.27238212 46.07781708 87.35837921 50.24183888 89.43408203 54.42211914 C90.38455501 56.33169679 91.34992893 58.23324708 92.31640625 60.13476562 C92.92798747 61.35631859 93.53869727 62.57830831 94.1484375 63.80078125 C94.69677246 64.89559814 95.24510742 65.99041504 95.81005859 67.1184082 C97 70 97 70 97 74 C97.66 74 98.32 74 99 74 C101.85670888 79.63746467 104.70406862 85.27957768 107.54492188 90.92504883 C108.51281605 92.84573414 109.48285973 94.7653378 110.45507812 96.68383789 C111.85069813 99.4387633 113.23858741 102.19746316 114.625 104.95703125 C115.06247559 105.81649857 115.49995117 106.67596588 115.95068359 107.56147766 C116.35109863 108.36208115 116.75151367 109.16268463 117.1640625 109.98754883 C117.69700928 111.04344963 117.69700928 111.04344963 118.24072266 112.12068176 C119 114 119 114 119 117 C83.03 117 47.06 117 10 117 C10.76462555 113.17687225 11.32359784 110.97954963 12.99023438 107.66308594 C13.40156616 106.83742126 13.81289795 106.01175659 14.23669434 105.16107178 C14.68452271 104.27776184 15.13235107 103.3944519 15.59375 102.484375 C16.05930298 101.55514221 16.52485596 100.62590942 17.0045166 99.66851807 C17.99369879 97.69687468 18.98575761 95.72667227 19.98046875 93.7578125 C21.47217753 90.80507276 22.95567371 87.84833442 24.4375 84.890625 C29.21956223 75.36697215 34.04748724 65.87405545 39.12145996 56.50189209 C41.31838187 52.41545975 43.19855382 48.28096479 45 44 C46.65 40.37 48.3 36.74 50 33 C33.5 33 17 33 0 33 C0 22.11 0 11.22 0 0 Z " fill="#E56592" transform="translate(411,294)"/>
<path d="M0 0 C0.97227539 -0.00056396 1.94455078 -0.00112793 2.94628906 -0.00170898 C11.24996629 0.1251335 17.85055108 1.64402554 25.3125 5.375 C25.3125 6.035 25.3125 6.695 25.3125 7.375 C26.6325 7.375 27.9525 7.375 29.3125 7.375 C31.625 9.4375 31.625 9.4375 34.3125 12.375 C35.45801599 13.45866888 36.60386883 14.54198178 37.75 15.625 C48.67847878 26.69602416 51.6402521 38.51934991 51.8125 53.6875 C51.83103027 54.71367432 51.84956055 55.73984863 51.86865234 56.79711914 C51.81441458 63.33915023 50.77219344 67.8335724 47.3125 73.375 C46.80847656 74.28507812 46.30445313 75.19515625 45.78515625 76.1328125 C41.76999278 82.8729484 37.84149797 88.78705548 31.3125 93.375 C30.6525 93.375 29.9925 93.375 29.3125 93.375 C29.3125 94.035 29.3125 94.695 29.3125 95.375 C16.6617987 103.18075186 1.79140568 105.43495213 -12.84375 102.80859375 C-19.56813263 100.87432104 -24.93630999 97.26674462 -30.75 93.4375 C-31.77222656 92.76847656 -32.79445312 92.09945312 -33.84765625 91.41015625 C-37.58064766 88.73493132 -40.21713255 86.78610234 -41.6875 82.375 C-42.67534738 81.36299331 -43.67618746 80.36355801 -44.6875 79.375 C-50.97311978 68.571591 -52.27977647 57.72396431 -51.6875 45.375 C-51.6565625 44.52679688 -51.625625 43.67859375 -51.59375 42.8046875 C-51.19532997 37.08736005 -49.27008522 32.45608628 -46.6875 27.375 C-46.0275 27.375 -45.3675 27.375 -44.6875 27.375 C-44.3575 25.725 -44.0275 24.075 -43.6875 22.375 C-42.6975 22.045 -41.7075 21.715 -40.6875 21.375 C-40.56117188 20.79621094 -40.43484375 20.21742188 -40.3046875 19.62109375 C-38.69652708 13.76861121 -30.8028241 8.59624712 -25.7578125 5.68359375 C-23.08841867 4.44502459 -20.46751416 3.33916676 -17.6875 2.375 C-16.64464844 2.01148438 -15.60179687 1.64796875 -14.52734375 1.2734375 C-9.63089445 0.12777795 -5.01318887 -0.00728412 0 0 Z " fill="#282627" transform="translate(288.6875,258.625)"/>
<path d="M0 0 C0 15.51 0 31.02 0 47 C29.04 47 58.08 47 88 47 C88 57.89 88 68.78 88 80 C22.33 80 -43.34 80 -111 80 C-111 69.11 -111 58.22 -111 47 C-83.61 47 -56.22 47 -28 47 C-28 32.48 -28 17.96 -28 3 C-21.07 2.34 -14.14 1.68 -7 1 C-3 0 -3 0 0 0 Z " fill="#D1D0D1" transform="translate(313,384)"/>
<path d="M0 0 C9.24 0 18.48 0 28 0 C28 68.97 28 137.94 28 209 C18.76 209 9.52 209 0 209 C0 140.03 0 71.06 0 0 Z " fill="#D3D3D3" transform="translate(1086,172)"/>
<path d="M0 0 C8.91 0 17.82 0 27 0 C27 68.64 27 137.28 27 208 C18.09 208 9.18 208 0 208 C0 139.36 0 70.72 0 0 Z " fill="#DADADA" transform="translate(912,402)"/>
<path d="M0 0 C1.21139648 -0.03673828 1.21139648 -0.03673828 2.44726562 -0.07421875 C7.67839967 -0.09951029 11.251204 0.80451148 15.8046875 3.38061523 C17.66313727 4.4936729 17.66313727 4.4936729 20.25390625 5.37109375 C28.05052572 8.76150188 34.83928888 16.85310726 38.5625 24.375 C40.62601704 30.09753696 40.89751812 35.30917031 40.875 41.3125 C40.89111328 42.16779297 40.90722656 43.02308594 40.92382812 43.90429688 C40.92990223 51.86745503 38.74652573 57.84689403 34.625 64.625 C34.14160156 65.43453125 33.65820312 66.2440625 33.16015625 67.078125 C31.48604238 69.48491952 29.76198901 71.43767231 27.5625 73.375 C26.9025 73.375 26.2425 73.375 25.5625 73.375 C25.5625 74.035 25.5625 74.695 25.5625 75.375 C23.078125 77.06640625 23.078125 77.06640625 19.8125 78.9375 C18.21148438 79.86755859 18.21148438 79.86755859 16.578125 80.81640625 C8.14283178 85.17609795 -3.82832432 84.58864451 -12.921875 82.62109375 C-20.34794572 80.00555779 -26.07288356 76.14196267 -31.4375 70.375 C-31.9221875 69.91867187 -32.406875 69.46234375 -32.90625 68.9921875 C-40.1694748 61.61779089 -42.90480028 51.32084748 -43 41.1875 C-42.77046857 29.79920994 -38.63435765 21.0725477 -31.4375 12.375 C-27.15178571 8.375 -27.15178571 8.375 -24.4375 8.375 C-24.4375 7.715 -24.4375 7.055 -24.4375 6.375 C-23.25429424 5.74190809 -22.06562152 5.11903282 -20.875 4.5 C-20.21371094 4.15195312 -19.55242188 3.80390625 -18.87109375 3.4453125 C-12.56893323 0.67357577 -6.77966796 0.01076993 0 0 Z " fill="#D7D7D7" transform="translate(966.4375,270.625)"/>
<path d="M0 0 C1.59185424 1.17605305 3.17634314 2.36220637 4.75 3.5625 C5.678125 4.243125 6.60625 4.92375 7.5625 5.625 C13.0444164 10.48041166 15.3061796 14.23165901 17.07421875 21.29296875 C17.70256973 23.81005208 17.70256973 23.81005208 19.75 26.5625 C20.2021044 29.60907582 20.12030643 32.67336518 20.125 35.75 C20.14949219 36.57564453 20.17398438 37.40128906 20.19921875 38.25195312 C20.22423894 43.54372425 19.39412183 47.18861426 16.70947266 51.7668457 C15.68751842 53.67943435 15.1944905 55.44752916 14.75 57.5625 C14.09 57.5625 13.43 57.5625 12.75 57.5625 C12.47800781 58.14902344 12.20601562 58.73554688 11.92578125 59.33984375 C9.15937712 64.56935853 5.13594685 69.01913621 -0.25 71.5625 C-0.91 71.5625 -1.57 71.5625 -2.25 71.5625 C-2.25 72.2225 -2.25 72.8825 -2.25 73.5625 C-12.0663771 77.101738 -20.84371813 77.7033369 -31.25 77.5625 C-31.25 76.9025 -31.25 76.2425 -31.25 75.5625 C-32.7040625 75.4696875 -32.7040625 75.4696875 -34.1875 75.375 C-43.40326212 74.04778071 -49.84168679 67.75056482 -55.3125 60.6875 C-61.54963649 52.16770016 -63.45346524 45.8350677 -63.5625 35.375 C-63.60600586 34.0127832 -63.60600586 34.0127832 -63.65039062 32.62304688 C-63.75220929 21.68145668 -58.97163126 13.32186397 -51.5 5.5 C-37.35856999 -8.17178842 -16.58717807 -11.35040379 0 0 Z " fill="#D6D6D6" transform="translate(613.25,405.4375)"/>
<path d="M0 0 C43.56 0 87.12 0 132 0 C132 10.89 132 21.78 132 33 C124.23907101 33.13767745 116.48236831 33.25714575 108.72119141 33.32958984 C106.08074599 33.35978306 103.44040103 33.4007419 100.80029297 33.45263672 C97.00723513 33.52533343 93.21550175 33.55943261 89.421875 33.5859375 C88.23946228 33.61690521 87.05704956 33.64787292 85.83880615 33.67977905 C82.77635364 33.68103978 79.9967534 33.63091964 77 33 C74.31201172 30.16674805 74.31201172 30.16674805 73 27 C72.53335938 25.92621094 72.06671875 24.85242188 71.5859375 23.74609375 C70.98652344 22.10833984 70.98652344 22.10833984 70.375 20.4375 C69.97023438 19.34308594 69.56546875 18.24867188 69.1484375 17.12109375 C68.76945312 16.09113281 68.39046875 15.06117188 68 14 C67.33953513 12.33086598 66.67520206 10.6632271 66 9 C61.92993197 11.03503402 60.51470792 15.92194021 59 20 C58.34 20 57.68 20 57 20 C57 21.32 57 22.64 57 24 C56.34 24 55.68 24 55 24 C55 25.98 55 27.96 55 30 C54.34 30 53.68 30 53 30 C53 30.66 53 31.32 53 32 C52.34 32 51.68 32 51 32 C50.67 32.99 50.34 33.98 50 35 C50 34.34 50 33.68 50 33 C33.5 33 17 33 0 33 C0 22.11 0 11.22 0 0 Z " fill="#D3D2D2" transform="translate(411,294)"/>
<path d="M0 0 C8.91 0 17.82 0 27 0 C27 43.56 27 87.12 27 132 C18.09 132 9.18 132 0 132 C0 88.44 0 44.88 0 0 Z " fill="#D9D9D9" transform="translate(594,248)"/>
<path d="M0 0 C17.49 0 34.98 0 53 0 C53 17.49 53 34.98 53 53 C35.51 53 18.02 53 0 53 C0 35.51 0 18.02 0 0 Z " fill="#2F292C" transform="translate(1028,432)"/>
<path d="M0 0 C6.29204497 2.42850858 10.93628543 5.87257085 14 12 C14.73324193 18.03300322 15.04794682 23.41733208 11.375 28.5 C7.85663345 32.41836646 4.79912853 35.64081979 -0.6484375 36.33984375 C-5.82648654 36.51337086 -9.97234683 36.56734995 -14 33 C-18.34923467 28.47978805 -21.13135694 25.18886692 -21.1875 18.6875 C-21.09496657 13.9220283 -20.90529174 9.95691295 -17.4140625 6.37109375 C-11.71793351 1.3839766 -7.71391919 -1.19049462 0 0 Z " fill="#272727" transform="translate(595,423)"/>
<path d="M0 0 C4.74751565 2.85505769 7.94931813 6.4239772 11 11 C11.99146463 17.46017482 11.481102 22.91283188 7.63671875 28.27734375 C4.31962751 31.76860207 0.2612906 33.8693547 -4 36 C-9.2490607 35.95875001 -13.8264031 35.36206417 -18 32 C-22.38782376 27.45012593 -24.14408662 23.96335419 -24.1875 17.625 C-24.20167969 16.68914062 -24.21585938 15.75328125 -24.23046875 14.7890625 C-23.83093634 9.95404318 -22.16940847 6.59947498 -18.75 3.1875 C-13.15036232 -1.44316577 -6.90131811 -1.54236984 0 0 Z " fill="#282828" transform="translate(688,295)"/>
<path d="M0 0 C4.60907575 1.86715349 8.51142201 4.60839178 11 9 C12.70100413 14.1030124 12.95041517 19.9197388 11.3515625 25.1015625 C9.03602791 29.59409541 5.72389362 33.18998578 1 35 C-9.76482213 36.11758893 -9.76482213 36.11758893 -14 34 C-14 33.34 -14 32.68 -14 32 C-14.556875 31.814375 -15.11375 31.62875 -15.6875 31.4375 C-19.17650217 29.26866082 -21.25882042 26.72228548 -23 23 C-24.08019406 17.72762421 -23.58669025 13.35372023 -20.875 8.6875 C-15.01712883 0.68769256 -9.85738566 -1.62782515 0 0 Z " fill="#282828" transform="translate(971,295)"/>
<path d="M0 0 C0.66 0 1.32 0 2 0 C2 0.66 2 1.32 2 2 C2.66 2 3.32 2 4 2 C4.20753906 2.49886719 4.41507812 2.99773437 4.62890625 3.51171875 C7.22237817 9.555919 10.2813067 15.25679217 13.51171875 20.984375 C15 24 15 24 16 29 C6.43 29 -3.14 29 -13 29 C-12.09475472 23.56852833 -11.34703351 21.44599114 -8.5625 17 C-6.10633187 13.06192667 -4.32004304 9.45763277 -3 5 C-2.34 5 -1.68 5 -1 5 C-0.67 3.35 -0.34 1.7 0 0 Z " fill="#2B1D24" transform="translate(474,356)"/>
<path d="M0 0 C43.56 0 87.12 0 132 0 C132 0.33 132 0.66 132 1 C88.77 1 45.54 1 1 1 C1 11.23 1 21.46 1 32 C15.52 32 30.04 32 45 32 C45 31.34 45 30.68 45 30 C50.41176471 26 50.41176471 26 53 26 C53.66 23.69 54.32 21.38 55 19 C56.32 18.67 57.64 18.34 59 18 C59 18.66 59 19.32 59 20 C58.34 20 57.68 20 57 20 C57 21.32 57 22.64 57 24 C56.34 24 55.68 24 55 24 C55 25.98 55 27.96 55 30 C54.34 30 53.68 30 53 30 C53 30.66 53 31.32 53 32 C52.34 32 51.68 32 51 32 C50.67 32.99 50.34 33.98 50 35 C50 34.34 50 33.68 50 33 C33.5 33 17 33 0 33 C0 22.11 0 11.22 0 0 Z " fill="#A6A5A5" transform="translate(411,294)"/>
<path d="M0 0 C16.83 0 33.66 0 51 0 C51 0.33 51 0.66 51 1 C49.07752441 1.03758423 49.07752441 1.03758423 47.11621094 1.07592773 C42.3600875 1.17011595 37.60410621 1.2703089 32.84814453 1.37231445 C30.78991013 1.41562009 28.73164082 1.45729829 26.67333984 1.49731445 C23.71441121 1.55512275 20.7556576 1.61878696 17.796875 1.68359375 C16.87694763 1.70030624 15.95702026 1.71701874 15.00921631 1.73423767 C13.71833099 1.7641555 13.71833099 1.7641555 12.40136719 1.79467773 C11.26885529 1.81799416 11.26885529 1.81799416 10.11346436 1.84178162 C7.94216763 2.00432945 6.06254295 2.29796397 4 3 C1.40046007 7.2373678 1.75818566 11.85002705 1.83984375 16.66015625 C1.84504532 17.48704453 1.85024689 18.3139328 1.85560608 19.1658783 C1.87335923 21.79826758 1.90452179 24.43026091 1.9375 27.0625 C1.96516392 29.69827056 1.98987198 32.33398436 2.00868225 34.96983337 C2.02088971 36.60706083 2.03844437 38.24425936 2.06199646 39.88136292 C2.09384459 43.51119008 1.88747133 46.45011469 1 50 C4.3 50 7.6 50 11 50 C11 50.33 11 50.66 11 51 C7.37 51 3.74 51 0 51 C0 34.17 0 17.34 0 0 Z " fill="#280F19" transform="translate(1029,433)"/>
<path d="M0 0 C-1.32 0.99 -2.64 1.98 -4 3 C-4.33 16.86 -4.66 30.72 -5 45 C23.05 45 51.1 45 80 45 C80 45.33 80 45.66 80 46 C51.62 46 23.24 46 -6 46 C-6 30.82 -6 15.64 -6 0 C-3 -1 -3 -1 0 0 Z " fill="#1B1B1B" transform="translate(320,384)"/>
<path d="M0 0 C0.66 0 1.32 0 2 0 C1.98952637 0.73524902 1.97905273 1.47049805 1.96826172 2.22802734 C1.92628202 5.61031576 1.9005417 8.99254907 1.875 12.375 C1.85824219 13.53128906 1.84148437 14.68757813 1.82421875 15.87890625 C1.77079993 25.33403668 2.95616789 33.58032443 6.125 42.5 C8 47.81021898 8 47.81021898 8 50 C6.68 49.34 5.36 48.68 4 48 C4 46.68 4 45.36 4 44 C3.34 44 2.68 44 2 44 C-1.0048307 31.33886871 -4.07231597 12.73406741 0 0 Z " fill="#1B0A0F" transform="translate(210,294)"/>
<path d="M0 0 C17.16 0 34.32 0 52 0 C52 2.64 52 5.28 52 8 C51.67 8 51.34 8 51 8 C51 5.69 51 3.38 51 1 C49.85337891 1.04543945 49.85337891 1.04543945 48.68359375 1.09179688 C45.12251192 1.23106903 41.56128423 1.36600349 38 1.5 C36.7210083 1.54914551 35.4420166 1.59829102 34.12426758 1.64892578 C26.12962946 1.93956624 18.19270014 2.04653058 10.19921875 1.7421875 C6.21716941 2.06308525 3.58251172 3.2655013 0 5 C-0.33 4.01 -0.66 3.02 -1 2 C-0.67 1.34 -0.34 0.68 0 0 Z " fill="#1D1D1D" transform="translate(720,328)"/>
<path d="M0 0 C1.38349388 0.00212242 1.38349388 0.00212242 2.79493713 0.00428772 C5.71879423 0.00985119 8.6425726 0.02239683 11.56640625 0.03515625 C13.5579416 0.04017597 15.54947815 0.04473805 17.54101562 0.04882812 C22.40367581 0.05980863 27.26627772 0.07704786 32.12890625 0.09765625 C31.79890625 1.74765625 31.46890625 3.39765625 31.12890625 5.09765625 C30.46890625 5.09765625 29.80890625 5.09765625 29.12890625 5.09765625 C29.12890625 4.10765625 29.12890625 3.11765625 29.12890625 2.09765625 C13.94890625 2.09765625 -1.23109375 2.09765625 -16.87109375 2.09765625 C-16.87109375 1.76765625 -16.87109375 1.43765625 -16.87109375 1.09765625 C-11.20541038 0.12706793 -5.74114572 -0.03357433 0 0 Z " fill="#262626" transform="translate(761.87109375,438.90234375)"/>
<path d="M0 0 C0.99 0 1.98 0 3 0 C6.40662408 7.48240646 7.40756891 14.16824988 7.4375 22.3125 C7.44716797 23.15973633 7.45683594 24.00697266 7.46679688 24.87988281 C7.39415383 30.31315492 6.46587388 34.15328237 4 39 C3.67 39 3.34 39 3 39 C3.15855469 37.71996094 3.31710937 36.43992187 3.48046875 35.12109375 C4.75969545 23.50353402 6.14776097 10.42923736 0 0 Z " fill="#1C0B12" transform="translate(333,288)"/>
<path d="M0 0 C0.66 0.33 1.32 0.66 2 1 C1.030625 1.78375 0.06125 2.5675 -0.9375 3.375 C-6.2147989 9.32282629 -4.98414319 18.50765659 -5 26 C-8.83289184 22.6776524 -8.83289184 22.6776524 -9.56640625 19.703125 C-9.55376486 11.76433277 -6.99998675 7.24322892 -1.6875 1.5 C-1.130625 1.005 -0.57375 0.51 0 0 Z " fill="#333333" transform="translate(957,296)"/>
<path d="M0 0 C4.36335722 1.07025743 6.87468327 1.87468327 10 5 C11.54867402 5.5050024 13.10430616 5.99544562 14.68359375 6.39453125 C17.79905606 7.20885951 20.86203784 8.17123861 23.9375 9.125 C25.65259766 9.65480469 25.65259766 9.65480469 27.40234375 10.1953125 C28.68818359 10.59363281 28.68818359 10.59363281 30 11 C30 11.99 30 12.98 30 14 C6.39715987 7.58909757 6.39715987 7.58909757 0 2 C0 1.34 0 0.68 0 0 Z " fill="#351622" transform="translate(246,376)"/>
<path d="M0 0 C1.53931671 3.98591279 0.44606575 7.55040466 -0.4375 11.5625 C-1.74334052 17.97112974 -2.96614596 24.45028322 -2 31 C-1.34 31.66 -0.68 32.32 0 33 C-0.2421875 35.1640625 -0.2421875 35.1640625 -0.875 37.625 C-1.07867187 38.44226563 -1.28234375 39.25953125 -1.4921875 40.1015625 C-1.65976563 40.72804688 -1.82734375 41.35453125 -2 42 C-2.33 42 -2.66 42 -3 42 C-3.80200419 36.34105846 -4.19362273 30.83872922 -4.1875 25.125 C-4.18669434 24.33706055 -4.18588867 23.54912109 -4.18505859 22.73730469 C-4.10079048 14.71696344 -2.778517 7.54168901 0 0 Z " fill="#AB3960" transform="translate(215,286)"/>
<path d="M0 0 C-0.97114746 0.48303589 -0.97114746 0.48303589 -1.96191406 0.97583008 C-4.53830393 3.5346284 -4.51145238 5.44342459 -4.60565186 8.98112488 C-4.60749481 10.17189384 -4.60749481 10.17189384 -4.609375 11.38671875 C-4.62591125 12.20372757 -4.64244751 13.02073639 -4.65948486 13.86250305 C-4.7080534 16.47091114 -4.72935459 19.07873594 -4.75 21.6875 C-4.77815241 23.4564097 -4.80807881 25.22529211 -4.83984375 26.99414062 C-4.91381428 31.32937906 -4.96333439 35.66429203 -5 40 C-5.33 40 -5.66 40 -6 40 C-6 26.8 -6 13.6 -6 0 C-3 -1 -3 -1 0 0 Z " fill="#221E22" transform="translate(320,384)"/>
<path d="M0 0 C1.18613892 0.00785522 1.18613892 0.00785522 2.39624023 0.01586914 C3.67724609 0.02070313 3.67724609 0.02070313 4.98413086 0.02563477 C5.88196289 0.03401367 6.77979492 0.04239258 7.70483398 0.05102539 C8.6065332 0.05553711 9.50823242 0.06004883 10.43725586 0.06469727 C12.67234712 0.07652315 14.90730835 0.09300319 17.14233398 0.11352539 C9.7958591 4.07675526 1.26689854 3.23539386 -6.85766602 3.11352539 C-6.21829102 2.80415039 -5.57891602 2.49477539 -4.92016602 2.17602539 C-0.78981113 0.04826681 -0.78981113 0.04826681 0 0 Z " fill="#CF5C85" transform="translate(292.857666015625,383.886474609375)"/>
<path d="M0 0 C0.33 0 0.66 0 1 0 C0.53414976 5.74548634 -1.07098434 9.55497444 -4.0625 14.4375 C-4.62807617 15.39172852 -4.62807617 15.39172852 -5.20507812 16.36523438 C-6.12640502 17.91632902 -7.06176593 19.45907343 -8 21 C-8.84205836 18.62077693 -9.14174203 17.40070408 -8.28735352 14.98535156 C-7.90506592 14.2940918 -7.52277832 13.60283203 -7.12890625 12.890625 C-6.71962891 12.13652344 -6.31035156 11.38242187 -5.88867188 10.60546875 C-5.2322168 9.43951172 -5.2322168 9.43951172 -4.5625 8.25 C-3.9118457 7.06083984 -3.9118457 7.06083984 -3.24804688 5.84765625 C-2.17607546 3.89219191 -1.09321878 1.94364092 0 0 Z " fill="#3E202A" transform="translate(447,352)"/>
<path d="M0 0 C0.66 0.33 1.32 0.66 2 1 C0.87672229 2.45966034 -0.24868294 3.91768364 -1.375 5.375 C-2.00148437 6.18710937 -2.62796875 6.99921875 -3.2734375 7.8359375 C-5 10 -5 10 -7 12 C-7.6425235 14.06874034 -7.6425235 14.06874034 -8 16 C-8.66 16 -9.32 16 -10 16 C-10.33 17.32 -10.66 18.64 -11 20 C-12 18 -12 18 -11.36328125 15.6875 C-11.01652344 14.800625 -10.66976562 13.91375 -10.3125 13 C-9.97863281 12.113125 -9.64476562 11.22625 -9.30078125 10.3125 C-7.79028881 7.6271801 -6.74775309 7.21524892 -4 6 C-1.75592746 2.96798075 -1.75592746 2.96798075 0 0 Z " fill="#2B1019" transform="translate(230,256)"/>
<path d="M0 0 C0.99 0 1.98 0 3 0 C3 0.66 3 1.32 3 2 C2.34 2 1.68 2 1 2 C1 3.32 1 4.64 1 6 C0.34 6 -0.32 6 -1 6 C-1 7.98 -1 9.96 -1 12 C-1.66 12 -2.32 12 -3 12 C-3 12.66 -3 13.32 -3 14 C-3.66 14 -4.32 14 -5 14 C-4.3288162 9.70442365 -3.19562682 3.19562682 0 0 Z " fill="#B99FA8" transform="translate(467,312)"/>
<path d="M0 0 C0.66 0 1.32 0 2 0 C2.66 2.97 3.32 5.94 4 9 C2.68 8.67 1.36 8.34 0 8 C0 7.34 0 6.68 0 6 C-0.66 6 -1.32 6 -2 6 C-2.33 6.66 -2.66 7.32 -3 8 C-2.37240135 5.07120629 -1.41377341 2.63904371 0 0 Z " fill="#D85E87" transform="translate(475,303)"/>
<path d="M0 0 C0.66 0 1.32 0 2 0 C1.67 6.93 1.34 13.86 1 21 C0.67 21 0.34 21 0 21 C-0.19511725 18.25034772 -0.38136433 15.50057868 -0.5625 12.75 C-0.61857422 11.97269531 -0.67464844 11.19539063 -0.73242188 10.39453125 C-0.80493164 9.26337891 -0.80493164 9.26337891 -0.87890625 8.109375 C-0.9260376 7.41811523 -0.97316895 6.72685547 -1.02172852 6.01464844 C-0.99853136 3.86382928 -0.5995764 2.05915129 0 0 Z " fill="#390918" transform="translate(210,294)"/>
<path d="M0 0 C6.16618181 -0.40214229 11.17745757 1.03181664 17 3 C17 3.99 17 4.98 17 6 C8.585 3.525 8.585 3.525 0 1 C0 0.67 0 0.34 0 0 Z " fill="#1C0A12" transform="translate(259,384)"/>
<path d="M0 0 C0.66 0.33 1.32 0.66 2 1 C-1.63 4.96 -5.26 8.92 -9 13 C-9.33 12.34 -9.66 11.68 -10 11 C-7.00793014 6.55463907 -4.41309542 3.15221101 0 0 Z " fill="#B9B9B9" transform="translate(940,279)"/>
<path d="M0 0 C2.97 0 5.94 0 9 0 C9 0.66 9 1.32 9 2 C2.71428571 4.42857143 2.71428571 4.42857143 -1 3 C-0.67 2.01 -0.34 1.02 0 0 Z " fill="#3D3D3D" transform="translate(586,423)"/>
<path d="M0 0 C3.78043163 0.77832416 5.51409299 1.98139863 8 5 C8 5.99 8 6.98 8 8 C7.34 8 6.68 8 6 8 C4.4921875 6.25 4.4921875 6.25 2.875 4 C2.33617187 3.2575 1.79734375 2.515 1.2421875 1.75 C0.62730469 0.88375 0.62730469 0.88375 0 0 Z " fill="#220D16" transform="translate(321,272)"/>
<path d="M0 0 C0.66 0 1.32 0 2 0 C2 0.99 2 1.98 2 3 C4.97 3.495 4.97 3.495 8 4 C8 4.33 8 4.66 8 5 C5.03 5 2.06 5 -1 5 C-0.67 3.35 -0.34 1.7 0 0 Z " fill="#242424" transform="translate(823,442)"/>
<path d="M0 0 C1.39195915 4.17587745 -0.17676781 6.13474776 -2 10 C-2.66 10 -3.32 10 -4 10 C-3.52449439 8.51965236 -3.04448784 7.04074979 -2.5625 5.5625 C-2.29566406 4.73878906 -2.02882813 3.91507813 -1.75390625 3.06640625 C-1 1 -1 1 0 0 Z " fill="#2C2C2C" transform="translate(793,538)"/>
<path d="M0 0 C0.6875 1.6875 0.6875 1.6875 1 4 C-0.4375 6.75 -0.4375 6.75 -2 9 C-2.66 8.34 -3.32 7.68 -4 7 C-1.125 1.125 -1.125 1.125 0 0 Z " fill="#180E12" transform="translate(335,328)"/>
<path d="M0 0 C2.31 0 4.62 0 7 0 C7 1.32 7 2.64 7 4 C3.73045798 3.43628586 2.17424117 2.50037734 0 0 Z " fill="#3B242C" transform="translate(317,236)"/>
<path d="M0 0 C2.31 0 4.62 0 7 0 C6.071875 0.3403125 6.071875 0.3403125 5.125 0.6875 C2.38589791 2.37929835 1.94975528 3.99244161 1 7 C0.67 7 0.34 7 0 7 C0 4.69 0 2.38 0 0 Z " fill="#131315" transform="translate(1030,434)"/>
<path d="M0 0 C1.32 0.33 2.64 0.66 4 1 C0.25 6.875 0.25 6.875 -2 8 C-1.34 5.36 -0.68 2.72 0 0 Z " fill="#D7A9B8" transform="translate(472,302)"/>
<path d="M0 0 C5.875 3.75 5.875 3.75 7 6 C6.01 6 5.02 6 4 6 C4 5.34 4 4.68 4 4 C2.68 4 1.36 4 0 4 C0 2.68 0 1.36 0 0 Z " fill="#2B0D18" transform="translate(236,368)"/>
<path d="M0 0 C0.6875 1.8125 0.6875 1.8125 1 4 C-0.4375 5.75 -0.4375 5.75 -2 7 C-2.99 6.67 -3.98 6.34 -5 6 C-3.35 4.02 -1.7 2.04 0 0 Z " fill="#492D39" transform="translate(351,356)"/>
<path d="M0 0 C3.96 0 7.92 0 12 0 C12 0.33 12 0.66 12 1 C9.02148438 1.34179688 9.02148438 1.34179688 6.04296875 1.68359375 C3.80603607 1.97170735 3.80603607 1.97170735 1 3 C0.67 2.01 0.34 1.02 0 0 Z " fill="#1A1318" transform="translate(490,328)"/>
<path d="M0 0 C0.66 0 1.32 0 2 0 C2 1.32 2 2.64 2 4 C1.34 4 0.68 4 0 4 C0 4.66 0 5.32 0 6 C-0.66 6 -1.32 6 -2 6 C-1.125 1.125 -1.125 1.125 0 0 Z " fill="#BB8095" transform="translate(464,320)"/>
</svg>
